<?xml version="1.0" standalone="no"?>
<!DOCTYPE svg PUBLIC "-//W3C//DTD SVG 20010904//EN"
 "http://www.w3.org/TR/2001/REC-SVG-20010904/DTD/svg10.dtd">
<svg version="1.0" xmlns="http://www.w3.org/2000/svg"
 width="500.000000pt" height="500.000000pt" viewBox="0 0 500.000000 500.000000"
 preserveAspectRatio="xMidYMid meet">

<g transform="translate(0.000000,500.000000) scale(0.100000,-0.100000)"
fill="#000000" stroke="none">
<path d="M2435 4060 c-3 -5 -18 -11 -33 -11 l-27 -1 30 -8 c17 -4 23 -8 14 -9
-9 0 -22 -12 -29 -26 -7 -14 -19 -25 -27 -25 -7 0 -13 -4 -13 -10 0 -5 -7 -10
-15 -10 -8 0 -15 -9 -15 -20 0 -13 7 -20 20 -20 13 0 20 -7 20 -20 0 -11 -4
-20 -10 -20 -5 0 -10 -9 -10 -19 0 -11 -4 -23 -10 -26 -5 -3 -10 -24 -10 -45
0 -22 -6 -44 -12 -51 -8 -7 -12 -31 -10 -65 3 -35 0 -54 -7 -54 -7 0 -11 -23
-11 -60 0 -33 -4 -60 -10 -60 -5 0 -10 -9 -10 -19 0 -11 -4 -22 -9 -25 -5 -3
-11 -19 -13 -36 -4 -25 -1 -30 16 -32 12 0 1 -4 -24 -7 -50 -7 746 -21 1186
-21 l281 0 12 -41 c17 -57 73 -115 133 -137 42 -16 54 -26 65 -55 14 -33 13
-37 -7 -57 -20 -20 -20 -22 -3 -50 17 -29 16 -30 -5 -50 -30 -28 -28 -58 4
-70 21 -8 25 -15 22 -42 -2 -25 -9 -34 -27 -38 -40 -9 -49 -35 -23 -63 26 -27
27 -40 7 -57 -21 -17 -19 -44 5 -65 l20 -18 -20 -22 c-24 -25 -26 -48 -5 -65
20 -17 19 -25 -7 -60 -17 -24 -19 -32 -8 -45 7 -8 21 -15 31 -15 18 0 24 -15
19 -50 -1 -8 -14 -25 -28 -37 l-27 -21 28 -29 c31 -34 33 -40 11 -64 -12 -14
-13 -22 -4 -38 6 -12 15 -21 20 -21 16 0 11 -57 -6 -74 -8 -9 -25 -16 -36 -16
-31 0 -99 -43 -125 -78 -12 -17 -28 -48 -35 -70 l-12 -39 -820 -6 c-452 -4
-849 -10 -883 -13 -66 -7 -86 -23 -30 -25 30 -1 31 -1 7 -9 -14 -4 -18 -8 -9
-9 16 -1 21 -41 6 -52 -5 -4 -9 -36 -10 -73 -1 -36 -5 -66 -9 -66 -5 0 -8 -9
-8 -20 0 -11 -4 -20 -8 -20 -5 0 -13 -42 -19 -92 -10 -87 -21 -139 -38 -180
-4 -11 -1 -18 12 -21 17 -5 17 -5 0 -6 -14 -1 -17 -6 -12 -21 8 -25 -2 -26
-28 -3 -11 10 -17 12 -13 5 6 -10 0 -9 -23 2 -17 9 -31 21 -31 27 0 6 -4 8 -9
5 -5 -3 -12 1 -15 10 -3 8 -11 12 -17 8 -10 -6 -121 63 -184 116 -145 121
-291 292 -372 435 -140 249 -208 555 -184 834 11 138 33 256 61 341 34 102 38
153 7 94 -12 -22 -15 -24 -20 -10 -4 9 -3 15 2 12 15 -10 21 22 6 34 -21 17
-51 -55 -33 -79 7 -9 8 -13 4 -9 -11 10 -39 -28 -31 -41 3 -5 1 -12 -4 -16
-22 -13 -55 -173 -71 -341 -28 -285 50 -628 199 -882 234 -400 618 -675 1081
-773 153 -33 449 -33 600 0 351 75 624 227 863 481 194 206 333 470 388 735
17 83 39 266 39 330 0 63 -24 262 -39 330 -70 301 -212 558 -431 775 -94 94
-140 131 -153 123 -6 -3 -7 -2 -4 4 3 5 -7 20 -23 32 -17 12 -30 17 -30 11 0
-5 5 -10 12 -10 6 0 8 -3 5 -6 -9 -9 -38 16 -31 27 3 5 -3 6 -12 2 -12 -4 -15
-3 -10 5 4 8 2 10 -8 6 -8 -3 -12 -12 -9 -20 3 -8 10 -11 16 -7 6 3 7 1 3 -5
-4 -8 -13 -8 -24 -3 -39 21 -133 61 -142 61 -6 0 -10 3 -10 8 0 8 -14 14 -124
57 -123 48 -213 71 -373 94 -91 14 -260 14 -268 1z m965 -234 c0 -2 -7 -7 -16
-10 -8 -3 -12 -2 -9 4 6 10 25 14 25 6z"/>
<path d="M3312 3884 c10 -10 20 -16 22 -13 3 3 -5 11 -17 18 -21 13 -21 12 -5
-5z"/>
<path d="M2055 3269 c-13 -19 6 -24 111 -27 117 -4 154 1 154 23 0 12 -20 15
-114 15 -66 0 -117 -4 -121 -10 -3 -5 -12 -10 -18 -10 -7 0 -6 4 3 10 9 6 10
10 3 10 -6 0 -15 -5 -18 -11z"/>
<path d="M2402 3263 c3 -16 17 -18 106 -21 97 -3 102 -2 102 18 0 19 -6 20
-106 20 -95 0 -105 -2 -102 -17z"/>
<path d="M2690 3260 c0 -19 7 -20 105 -20 98 0 105 1 105 20 0 19 -7 20 -105
20 -98 0 -105 -1 -105 -20z"/>
<path d="M2980 3260 c0 -19 7 -20 105 -20 98 0 105 1 105 20 0 19 -7 20 -105
20 -98 0 -105 -1 -105 -20z"/>
<path d="M3270 3260 c0 -19 7 -20 134 -20 l135 0 23 -46 c25 -50 72 -97 123
-121 31 -15 32 -18 31 -67 -1 -48 0 -51 24 -51 22 0 25 5 28 37 4 51 -10 72
-56 86 -59 18 -126 82 -153 147 l-23 55 -133 0 c-126 0 -133 -1 -133 -20z"/>
<path d="M3390 2620 c0 -447 2 -510 15 -510 13 0 15 63 15 510 0 447 -2 510
-15 510 -13 0 -15 -63 -15 -510z"/>
<path d="M1269 3032 c9 -7 10 -11 2 -15 -7 -4 -8 -5 0 -3 15 2 13 20 -3 24
-10 3 -10 2 1 -6z"/>
<path d="M2654 2714 c-147 -151 -272 -274 -278 -274 -6 0 -65 54 -131 120
l-120 120 -35 -35 -34 -35 107 -108 c59 -60 107 -108 107 -106 0 1 24 -22 53
-53 l52 -55 305 312 c168 171 306 315 308 319 1 4 -13 21 -32 39 l-34 31 -268
-275z"/>
<path d="M1285 2770 c-4 -6 -9 -8 -13 -6 -4 2 -7 -6 -7 -19 0 -19 3 -21 14
-12 12 10 12 9 2 -12 -7 -13 -9 -21 -4 -18 4 3 14 -1 21 -9 7 -8 9 -14 5 -14
-4 0 -8 -27 -9 -59 0 -33 4 -57 9 -54 13 8 -16 -40 -32 -53 -15 -12 -25 -48
-11 -39 5 3 11 1 15 -4 3 -6 13 -7 21 -4 14 5 13 8 -6 18 -20 11 -21 13 -5 19
10 3 23 1 31 -5 9 -7 19 -7 35 1 17 10 19 14 8 21 -11 7 -10 9 4 9 36 0 50
101 21 158 -17 35 -27 43 -17 15 5 -15 3 -14 -10 2 -8 11 -13 23 -11 26 2 4
-4 13 -13 20 -12 10 -14 10 -9 2 4 -7 2 -13 -3 -13 -6 0 -11 5 -11 11 0 6 -7
8 -16 5 -14 -5 -15 -4 -4 9 7 8 10 15 7 15 -3 0 -9 -5 -12 -10z m45 -60 c0 -5
-4 -10 -10 -10 -5 0 -10 5 -10 10 0 6 5 10 10 10 6 0 10 -4 10 -10z m14 -100
c4 -25 3 -31 -4 -20 -8 13 -10 12 -10 -4 0 -16 -3 -17 -12 -8 -9 9 -9 15 0 24
7 7 12 21 12 32 0 28 6 17 14 -24z"/>
<path d="M3666 2748 c-44 -36 -66 -81 -66 -133 0 -73 65 -154 127 -158 36 -3
42 28 14 74 -30 48 -28 124 3 179 13 24 22 49 19 56 -9 24 -57 15 -97 -18z"/>
<path d="M3720 2275 c-8 -10 -11 -31 -7 -59 6 -42 5 -45 -22 -54 -40 -14 -109
-78 -132 -124 l-19 -38 -135 0 -135 0 0 -25 0 -25 134 0 134 0 13 38 c7 20 23
54 37 74 27 41 105 98 133 98 41 0 64 64 39 111 -13 23 -23 24 -40 4z"/>
<path d="M1263 2208 c3 -9 1 -19 -6 -22 -9 -3 -9 -5 0 -5 18 -1 23 13 11 29
-8 12 -9 12 -5 -2z"/>
<path d="M1360 2126 c0 -2 8 -10 18 -17 15 -13 16 -12 3 4 -13 16 -21 21 -21
13z"/>
<path d="M2407 1993 c-4 -3 -7 -15 -7 -25 0 -16 10 -18 105 -18 l105 0 0 25
c0 25 0 25 -98 25 -54 0 -102 -3 -105 -7z"/>
<path d="M2690 1975 l0 -25 105 0 105 0 0 25 0 25 -105 0 -105 0 0 -25z"/>
<path d="M2980 1975 l0 -25 105 0 105 0 0 25 0 25 -105 0 -105 0 0 -25z"/>
<path d="M1805 1980 c-30 -7 -30 -7 -5 -13 14 -4 54 -8 90 -9 55 -3 65 0 68
15 3 15 -5 17 -60 16 -35 -1 -76 -5 -93 -9z"/>
<path d="M2042 1973 c3 -16 19 -18 141 -21 132 -2 137 -2 137 18 0 19 -6 20
-141 20 -128 0 -140 -2 -137 -17z"/>
<path d="M1805 1291 c-3 -5 -2 -12 3 -15 5 -3 9 1 9 9 0 17 -3 19 -12 6z"/>
<path d="M1838 1283 c6 -2 18 -2 25 0 6 3 1 5 -13 5 -14 0 -19 -2 -12 -5z"/>
</g>
</svg>
